<svg version="1.1" id="Layer_1" xmlns="http://www.w3.org/2000/svg" xmlns:xlink="http://www.w3.org/1999/xlink" x="0px" y="0px"
	 width="100%" viewBox="0 0 2000 1500" enable-background="new 0 0 2000 1500" xml:space="preserve">
<path fill="#FFFFFF" opacity="1.000000" stroke="none" 
	d="
M1366.000000,1501.000000 
	C910.666809,1501.000000 455.833618,1501.000000 1.000305,1501.000000 
	C1.000203,1001.000305 1.000203,501.000580 1.000102,1.000641 
	C667.666199,1.000427 1334.332397,1.000427 2000.998901,1.000214 
	C2000.999268,500.999359 2000.999268,1000.998718 2000.999634,1500.999023 
	C1789.500000,1501.000000 1578.000000,1501.000000 1366.000000,1501.000000 
M992.428040,1177.990234 
	C1174.961060,1258.956909 1391.516968,1216.784058 1529.185059,1065.097290 
	C1665.941895,914.414551 1690.059937,694.268066 1588.924072,517.960999 
	C1489.766968,345.103058 1290.510986,249.325790 1084.052979,293.171021 
	C897.850769,332.714569 779.245056,475.606354 740.873962,598.856934 
	C751.436951,599.582336 751.430786,599.580017 755.123230,589.840881 
	C755.947937,587.665527 756.839233,585.515503 757.689026,583.349609 
	C817.542114,430.814423 957.154480,319.327698 1122.270630,297.753540 
	C1186.408081,289.373260 1249.588379,293.869812 1311.646118,312.124542 
	C1483.810547,362.767944 1610.452881,509.504791 1635.187744,686.693787 
	C1644.613647,754.216187 1639.438232,820.596436 1619.281128,885.722107 
	C1564.723145,1061.993286 1410.136108,1187.439453 1225.574463,1205.197144 
	C1167.731812,1210.762573 1110.615479,1206.127808 1055.089111,1188.955933 
	C910.703918,1144.303955 810.932800,1051.045654 755.032227,910.738281 
	C751.218262,901.165222 751.389282,901.096313 740.942566,902.123718 
	C740.799011,902.137878 740.666260,902.261780 740.396423,902.404053 
	C740.710815,903.479614 740.983215,904.607605 741.367188,905.696289 
	C751.183105,933.525574 763.362366,960.280640 778.366821,985.692383 
	C829.353027,1072.043457 900.532715,1136.005493 992.428040,1177.990234 
M573.499939,869.690857 
	C592.323853,869.462708 611.200928,870.041443 629.958313,868.804504 
	C654.020508,867.217773 674.572998,857.303589 690.280396,838.556824 
	C704.828430,821.193787 711.705078,800.695557 712.888000,778.414795 
	C714.088135,755.810364 715.169678,733.092285 709.958130,710.748047 
	C700.138733,668.647705 669.496155,642.045105 626.344055,640.028625 
	C597.741333,638.692139 569.036133,639.547729 540.376709,639.451416 
	C539.767151,639.449402 539.156433,639.803955 538.686218,639.949036 
	C538.686218,716.568176 538.686218,792.962585 538.686218,869.690796 
	C550.210449,869.690796 561.355164,869.690796 573.499939,869.690857 
M792.364014,872.061096 
	C793.852966,872.237244 795.337891,872.462585 796.831360,872.582275 
	C824.166443,874.773132 847.588989,867.532898 864.466309,844.510132 
	C864.787903,844.071411 865.311707,843.780884 866.001831,843.202942 
	C866.387634,845.610718 866.631592,847.593689 867.030396,849.545105 
	C869.244263,860.378906 874.368713,868.999268 885.820190,871.812805 
	C897.074036,874.577759 907.986328,872.682495 918.357117,867.724792 
	C919.500549,867.178223 920.952698,865.736938 920.989746,864.666565 
	C921.227844,857.784973 921.111389,850.891113 921.111389,843.409546 
	C919.313538,844.196167 918.283630,844.671509 917.235291,845.101807 
	C904.534485,850.315552 895.878723,849.034790 896.160278,831.360657 
	C896.632629,801.709045 896.604736,772.032776 895.945801,742.385620 
	C895.505127,722.559998 885.669067,708.091125 866.845093,701.006470 
	C845.504456,692.974487 823.459351,692.930115 801.443298,697.786499 
	C786.158630,701.158020 772.652466,708.054199 762.674438,720.669739 
	C755.526001,729.707703 754.768433,739.919189 756.672485,750.659912 
	C767.070251,750.659912 776.994019,750.659912 786.880920,750.659912 
	C789.039795,731.925354 794.565613,725.076477 810.872498,721.475403 
	C822.106445,718.994629 833.420715,719.320923 844.531799,722.269226 
	C853.522461,724.654785 861.220093,729.371521 863.030640,739.142456 
	C864.671753,747.999329 864.768982,757.142273 865.552063,766.218262 
	C851.286011,766.850281 838.304077,767.153809 825.365173,768.066833 
	C808.898621,769.228821 792.588623,771.428345 777.201355,778.012329 
	C763.009399,784.084961 753.293518,794.287903 751.394165,809.747009 
	C750.216919,819.328247 750.647278,829.386536 752.140625,838.952087 
	C754.493225,854.021484 764.022888,863.897095 778.419434,868.810242 
	C782.643066,870.251526 787.122314,870.943481 792.364014,872.061096 
M1358.160767,859.666016 
	C1376.272339,846.433472 1384.542847,828.418335 1384.720703,806.113342 
	C1374.529907,806.113342 1364.912354,806.113342 1355.080322,806.113342 
	C1354.970581,807.579468 1354.910400,808.879028 1354.771118,810.170105 
	C1352.331665,832.759888 1340.204956,845.621460 1318.449219,847.499329 
	C1302.735229,848.855713 1288.075806,845.725342 1277.536865,832.613708 
	C1267.915771,820.643555 1265.604858,806.318726 1265.006836,790.932922 
	C1305.112671,790.932922 1344.824707,790.932922 1384.742188,790.932922 
	C1384.742188,781.266418 1385.154785,772.109985 1384.663574,763.002319 
	C1383.275024,737.257324 1373.194580,716.325500 1349.840088,703.412964 
	C1336.788940,696.197083 1322.520996,694.540039 1307.806030,694.880005 
	C1275.837891,695.618530 1250.894775,712.999084 1239.872070,742.970825 
	C1231.709229,765.166260 1231.797241,788.025635 1235.800171,810.951660 
	C1238.902344,828.718018 1247.067749,843.965088 1260.845337,855.811218 
	C1285.789062,877.258118 1328.509033,879.043640 1358.160767,859.666016 
M999.190430,738.786621 
	C1009.318604,725.858643 1022.347290,719.130249 1039.008179,720.061584 
	C1056.318359,721.029175 1066.945557,729.973877 1070.109009,746.903198 
	C1071.110229,752.261169 1071.360474,757.821350 1071.378540,763.290894 
	C1071.489136,796.778198 1071.433960,830.266113 1071.434204,863.753784 
	C1071.434204,865.658936 1071.434326,867.564026 1071.434326,869.420532 
	C1082.412964,869.420532 1092.518066,869.420532 1102.811646,869.420532 
	C1102.888184,867.860291 1103.007690,866.556458 1103.007935,865.252625 
	C1103.016479,828.266235 1103.046143,791.279724 1102.968140,754.293457 
	C1102.958740,749.813904 1102.619873,745.298218 1101.986328,740.863098 
	C1099.293457,722.010376 1089.892700,707.715149 1072.038086,700.336975 
	C1047.119141,690.039673 1010.113831,691.835327 987.397949,720.659180 
	C986.910339,721.277832 986.833130,722.220093 986.564392,723.011414 
	C986.091492,722.679504 985.618591,722.347595 985.145630,722.015686 
	C983.712280,714.098877 982.278931,706.182007 980.872864,698.415833 
	C973.083252,698.415833 965.676208,698.415833 958.411865,698.415833 
	C958.411865,755.638672 958.411865,812.511169 958.411865,869.427246 
	C968.878845,869.427246 978.970642,869.427246 989.633667,869.427246 
	C989.633667,867.386292 989.633667,865.603149 989.633728,863.820007 
	C989.634399,832.331604 989.712585,800.842834 989.593628,769.354919 
	C989.552002,758.339966 992.218018,748.304871 999.190430,738.786621 
M1463.699951,783.500061 
	C1463.699951,731.752136 1463.699951,680.004211 1463.699951,628.366455 
	C1452.736694,628.366455 1442.491455,628.366455 1432.369873,628.366455 
	C1432.369873,708.921082 1432.369873,789.133484 1432.369873,869.305664 
	C1442.940186,869.305664 1453.163208,869.305664 1463.699951,869.305664 
	C1463.699951,840.778809 1463.699951,812.639465 1463.699951,783.500061 
M1182.338135,698.072327 
	C1173.928467,698.072327 1165.518799,698.072327 1157.331421,698.072327 
	C1157.331421,755.669617 1157.331421,812.518860 1157.331421,869.432800 
	C1167.765869,869.432800 1177.849365,869.432800 1188.145264,869.432800 
	C1188.145264,812.218750 1188.145264,755.256042 1188.145264,698.072327 
	C1186.266968,698.072327 1184.776855,698.072327 1182.338135,698.072327 
M1164.555542,657.191711 
	C1172.627441,657.191711 1180.699463,657.191711 1188.892578,657.191711 
	C1188.892578,647.239319 1188.892578,637.859314 1188.892578,628.313232 
	C1177.984009,628.313232 1167.301636,628.313232 1156.463379,628.313232 
	C1156.463379,637.974854 1156.463379,647.349182 1156.463379,657.191711 
	C1159.007568,657.191711 1161.292114,657.191711 1164.555542,657.191711 
z"/>
<path fill="#0C1DC5" opacity="1.000000" stroke="none" 
	d="
M992.076416,1177.848022 
	C900.532715,1136.005493 829.353027,1072.043457 778.366821,985.692383 
	C763.362366,960.280640 751.183105,933.525574 741.367188,905.696289 
	C740.983215,904.607605 740.710815,903.479614 740.396423,902.404053 
	C740.666260,902.261780 740.799011,902.137878 740.942566,902.123718 
	C751.389282,901.096313 751.218262,901.165222 755.032227,910.738281 
	C810.932800,1051.045654 910.703918,1144.303955 1055.089111,1188.955933 
	C1110.615479,1206.127808 1167.731812,1210.762573 1225.574463,1205.197144 
	C1410.136108,1187.439453 1564.723145,1061.993286 1619.281128,885.722107 
	C1639.438232,820.596436 1644.613647,754.216187 1635.187744,686.693787 
	C1610.452881,509.504791 1483.810547,362.767944 1311.646118,312.124542 
	C1249.588379,293.869812 1186.408081,289.373260 1122.270630,297.753540 
	C957.154480,319.327698 817.542114,430.814423 757.689026,583.349609 
	C756.839233,585.515503 755.947937,587.665527 755.123230,589.840881 
	C751.430786,599.580017 751.436951,599.582336 740.873962,598.856934 
	C779.245056,475.606354 897.850769,332.714569 1084.052979,293.171021 
	C1290.510986,249.325790 1489.766968,345.103058 1588.924072,517.960999 
	C1690.059937,694.268066 1665.941895,914.414551 1529.185059,1065.097290 
	C1391.516968,1216.784058 1174.961060,1258.956909 992.076416,1177.848022 
z"/>
<path fill="#0A1BC5" opacity="1.000000" stroke="none" 
	d="
M572.999878,869.690796 
	C561.355164,869.690796 550.210449,869.690796 538.686218,869.690796 
	C538.686218,792.962585 538.686218,716.568176 538.686218,639.949036 
	C539.156433,639.803955 539.767151,639.449402 540.376709,639.451416 
	C569.036133,639.547729 597.741333,638.692139 626.344055,640.028625 
	C669.496155,642.045105 700.138733,668.647705 709.958130,710.748047 
	C715.169678,733.092285 714.088135,755.810364 712.888000,778.414795 
	C711.705078,800.695557 704.828430,821.193787 690.280396,838.556824 
	C674.572998,857.303589 654.020508,867.217773 629.958313,868.804504 
	C611.200928,870.041443 592.323853,869.462708 572.999878,869.690796 
M674.593201,803.911499 
	C683.579407,772.629211 683.675781,740.983887 675.806824,709.731628 
	C670.023560,686.762634 653.888672,672.599731 630.124817,670.393921 
	C610.962402,668.615234 591.539001,669.645264 572.231140,669.458740 
	C571.978088,669.456299 571.721191,669.843140 571.465454,670.052124 
	C571.465454,726.460205 571.465454,782.868347 571.465454,839.141541 
	C590.334229,839.141541 608.989258,840.073486 627.511230,838.901978 
	C649.866577,837.487915 665.651367,825.556641 674.593201,803.911499 
z"/>
<path fill="#091AC4" opacity="1.000000" stroke="none" 
	d="
M791.924194,872.020020 
	C787.122314,870.943481 782.643066,870.251526 778.419434,868.810242 
	C764.022888,863.897095 754.493225,854.021484 752.140625,838.952087 
	C750.647278,829.386536 750.216919,819.328247 751.394165,809.747009 
	C753.293518,794.287903 763.009399,784.084961 777.201355,778.012329 
	C792.588623,771.428345 808.898621,769.228821 825.365173,768.066833 
	C838.304077,767.153809 851.286011,766.850281 865.552063,766.218262 
	C864.768982,757.142273 864.671753,747.999329 863.030640,739.142456 
	C861.220093,729.371521 853.522461,724.654785 844.531799,722.269226 
	C833.420715,719.320923 822.106445,718.994629 810.872498,721.475403 
	C794.565613,725.076477 789.039795,731.925354 786.880920,750.659912 
	C776.994019,750.659912 767.070251,750.659912 756.672485,750.659912 
	C754.768433,739.919189 755.526001,729.707703 762.674438,720.669739 
	C772.652466,708.054199 786.158630,701.158020 801.443298,697.786499 
	C823.459351,692.930115 845.504456,692.974487 866.845093,701.006470 
	C885.669067,708.091125 895.505127,722.559998 895.945801,742.385620 
	C896.604736,772.032776 896.632629,801.709045 896.160278,831.360657 
	C895.878723,849.034790 904.534485,850.315552 917.235291,845.101807 
	C918.283630,844.671509 919.313538,844.196167 921.111389,843.409546 
	C921.111389,850.891113 921.227844,857.784973 920.989746,864.666565 
	C920.952698,865.736938 919.500549,867.178223 918.357117,867.724792 
	C907.986328,872.682495 897.074036,874.577759 885.820190,871.812805 
	C874.368713,868.999268 869.244263,860.378906 867.030396,849.545105 
	C866.631592,847.593689 866.387634,845.610718 866.001831,843.202942 
	C865.311707,843.780884 864.787903,844.071411 864.466309,844.510132 
	C847.588989,867.532898 824.166443,874.773132 796.831360,872.582275 
	C795.337891,872.462585 793.852966,872.237244 791.924194,872.020020 
M850.626221,791.183777 
	C840.833862,791.813110 830.939575,791.779907 821.278870,793.265625 
	C812.337830,794.640686 803.304321,796.787109 794.933105,800.144043 
	C784.656555,804.265015 780.442261,814.843384 781.942688,828.304626 
	C782.899841,836.891724 789.073547,843.235474 799.378479,845.803284 
	C803.070923,846.723328 806.896606,847.218079 810.692383,847.597107 
	C843.087036,850.831604 868.919922,823.861023 864.373596,791.183044 
	C860.155823,791.183044 855.874451,791.183044 850.626221,791.183777 
z"/>
<path fill="#091AC4" opacity="1.000000" stroke="none" 
	d="
M1357.861816,859.863159 
	C1328.509033,879.043640 1285.789062,877.258118 1260.845337,855.811218 
	C1247.067749,843.965088 1238.902344,828.718018 1235.800171,810.951660 
	C1231.797241,788.025635 1231.709229,765.166260 1239.872070,742.970825 
	C1250.894775,712.999084 1275.837891,695.618530 1307.806030,694.880005 
	C1322.520996,694.540039 1336.788940,696.197083 1349.840088,703.412964 
	C1373.194580,716.325500 1383.275024,737.257324 1384.663574,763.002319 
	C1385.154785,772.109985 1384.742188,781.266418 1384.742188,790.932922 
	C1344.824707,790.932922 1305.112671,790.932922 1265.006836,790.932922 
	C1265.604858,806.318726 1267.915771,820.643555 1277.536865,832.613708 
	C1288.075806,845.725342 1302.735229,848.855713 1318.449219,847.499329 
	C1340.204956,845.621460 1352.331665,832.759888 1354.771118,810.170105 
	C1354.910400,808.879028 1354.970581,807.579468 1355.080322,806.113342 
	C1364.912354,806.113342 1374.529907,806.113342 1384.720703,806.113342 
	C1384.542847,828.418335 1376.272339,846.433472 1357.861816,859.863159 
M1296.500000,766.680237 
	C1315.407227,766.680237 1334.314331,766.680237 1353.499023,766.680237 
	C1354.008667,749.491089 1349.802612,734.896179 1334.799194,726.227234 
	C1318.715454,716.934204 1301.803833,717.157288 1286.067383,727.210815 
	C1272.077393,736.148682 1267.683960,750.620300 1265.779907,766.680115 
	C1276.225342,766.680115 1285.862671,766.680115 1296.500000,766.680237 
z"/>
<path fill="#0A1BC5" opacity="1.000000" stroke="none" 
	d="
M998.999817,739.094971 
	C992.218018,748.304871 989.552002,758.339966 989.593628,769.354919 
	C989.712585,800.842834 989.634399,832.331604 989.633728,863.820007 
	C989.633667,865.603149 989.633667,867.386292 989.633667,869.427246 
	C978.970642,869.427246 968.878845,869.427246 958.411865,869.427246 
	C958.411865,812.511169 958.411865,755.638672 958.411865,698.415833 
	C965.676208,698.415833 973.083252,698.415833 980.872864,698.415833 
	C982.278931,706.182007 983.712280,714.098877 985.145630,722.015686 
	C985.618591,722.347595 986.091492,722.679504 986.564392,723.011414 
	C986.833130,722.220093 986.910339,721.277832 987.397949,720.659180 
	C1010.113831,691.835327 1047.119141,690.039673 1072.038086,700.336975 
	C1089.892700,707.715149 1099.293457,722.010376 1101.986328,740.863098 
	C1102.619873,745.298218 1102.958740,749.813904 1102.968140,754.293457 
	C1103.046143,791.279724 1103.016479,828.266235 1103.007935,865.252625 
	C1103.007690,866.556458 1102.888184,867.860291 1102.811646,869.420532 
	C1092.518066,869.420532 1082.412964,869.420532 1071.434326,869.420532 
	C1071.434326,867.564026 1071.434204,865.658936 1071.434204,863.753784 
	C1071.433960,830.266113 1071.489136,796.778198 1071.378540,763.290894 
	C1071.360474,757.821350 1071.110229,752.261169 1070.109009,746.903198 
	C1066.945557,729.973877 1056.318359,721.029175 1039.008179,720.061584 
	C1022.347290,719.130249 1009.318604,725.858643 998.999817,739.094971 
z"/>
<path fill="#0B1CC5" opacity="1.000000" stroke="none" 
	d="
M1463.699951,784.000122 
	C1463.699951,812.639465 1463.699951,840.778809 1463.699951,869.305664 
	C1453.163208,869.305664 1442.940186,869.305664 1432.369873,869.305664 
	C1432.369873,789.133484 1432.369873,708.921082 1432.369873,628.366455 
	C1442.491455,628.366455 1452.736694,628.366455 1463.699951,628.366455 
	C1463.699951,680.004211 1463.699951,731.752136 1463.699951,784.000122 
z"/>
<path fill="#0819C4" opacity="1.000000" stroke="none" 
	d="
M1182.812500,698.072327 
	C1184.776855,698.072327 1186.266968,698.072327 1188.145264,698.072327 
	C1188.145264,755.256042 1188.145264,812.218750 1188.145264,869.432800 
	C1177.849365,869.432800 1167.765869,869.432800 1157.331421,869.432800 
	C1157.331421,812.518860 1157.331421,755.669617 1157.331421,698.072327 
	C1165.518799,698.072327 1173.928467,698.072327 1182.812500,698.072327 
z"/>
<path fill="#0A1BC5" opacity="1.000000" stroke="none" 
	d="
M1164.066162,657.191711 
	C1161.292114,657.191711 1159.007568,657.191711 1156.463379,657.191711 
	C1156.463379,647.349182 1156.463379,637.974854 1156.463379,628.313232 
	C1167.301636,628.313232 1177.984009,628.313232 1188.892578,628.313232 
	C1188.892578,637.859314 1188.892578,647.239319 1188.892578,657.191711 
	C1180.699463,657.191711 1172.627441,657.191711 1164.066162,657.191711 
z"/>
<path fill="#FDFDFF" opacity="1.000000" stroke="none" 
	d="
M674.416504,804.255493 
	C665.651367,825.556641 649.866577,837.487915 627.511230,838.901978 
	C608.989258,840.073486 590.334229,839.141541 571.465454,839.141541 
	C571.465454,782.868347 571.465454,726.460205 571.465759,670.050171 
	C571.721191,669.843140 571.978088,669.456299 572.231140,669.458740 
	C591.539001,669.645264 610.962402,668.615234 630.124817,670.393921 
	C653.888672,672.599731 670.023560,686.762634 675.806824,709.731628 
	C683.675781,740.983887 683.579407,772.629211 674.416504,804.255493 
z"/>
<path fill="#FDFDFE" opacity="1.000000" stroke="none" 
	d="
M851.109680,791.183411 
	C855.874451,791.183044 860.155823,791.183044 864.373596,791.183044 
	C868.919922,823.861023 843.087036,850.831604 810.692383,847.597107 
	C806.896606,847.218079 803.070923,846.723328 799.378479,845.803284 
	C789.073547,843.235474 782.899841,836.891724 781.942688,828.304626 
	C780.442261,814.843384 784.656555,804.265015 794.933105,800.144043 
	C803.304321,796.787109 812.337830,794.640686 821.278870,793.265625 
	C830.939575,791.779907 840.833862,791.813110 851.109680,791.183411 
z"/>
<path fill="#FBFBFE" opacity="1.000000" stroke="none" 
	d="
M1296.000000,766.680176 
	C1285.862671,766.680115 1276.225342,766.680115 1265.779907,766.680115 
	C1267.683960,750.620300 1272.077393,736.148682 1286.067383,727.210815 
	C1301.803833,717.157288 1318.715454,716.934204 1334.799194,726.227234 
	C1349.802612,734.896179 1354.008667,749.491089 1353.499023,766.680237 
	C1334.314331,766.680237 1315.407227,766.680237 1296.000000,766.680176 
z"/>
</svg>